<?xml version="1.0" standalone="no"?>
<!DOCTYPE svg PUBLIC "-//W3C//DTD SVG 20010904//EN"
 "http://www.w3.org/TR/2001/REC-SVG-20010904/DTD/svg10.dtd">
<svg version="1.0" xmlns="http://www.w3.org/2000/svg"
 width="2050.000000pt" height="1350.000000pt" viewBox="0 0 2050.000000 1350.000000"
 preserveAspectRatio="xMidYMid meet">
<metadata>
Created by potrace 1.15, written by Peter Selinger 2001-2017
</metadata>
<g transform="translate(0.000000,1350.000000) scale(0.100000,-0.100000)"
fill="#000000" stroke="none">
<path d="M610 13211 c-83 -26 -150 -82 -191 -161 l-24 -45 0 -6245 0 -6245 23
-46 c27 -55 83 -113 137 -142 l40 -22 9585 0 9585 0 41 22 c67 36 101 70 133
135 l31 61 0 6227 c0 5668 -1 6231 -16 6273 -20 60 -91 138 -151 168 l-48 24
-9560 2 c-5258 1 -9571 -2 -9585 -6z m10602 -3375 c181 -46 334 -132 470 -264
519 -503 370 -1375 -289 -1684 -167 -78 -386 -113 -565 -89 -128 17 -429 105
-450 132 -21 24 -22 42 -7 70 22 43 49 42 242 -12 152 -42 201 -52 294 -56
272 -14 502 76 691 269 242 247 319 617 195 942 -103 271 -326 473 -613 552
-94 26 -347 26 -445 0 -326 -87 -575 -344 -652 -673 -13 -57 -18 -114 -17
-213 l1 -135 163 -565 c184 -643 200 -707 200 -841 1 -575 -462 -1039 -1035
-1039 -551 0 -1002 429 -1032 981 -7 133 8 243 53 378 117 353 403 606 777
687 89 20 300 22 382 5 83 -18 288 -77 314 -90 46 -25 31 -103 -22 -116 -13
-4 -77 9 -148 29 -173 49 -246 60 -364 53 -236 -14 -432 -102 -595 -266 -305
-307 -346 -778 -99 -1143 104 -152 275 -280 454 -337 491 -158 989 107 1142
606 24 80 27 103 27 248 l0 160 -168 580 c-99 343 -173 621 -182 680 -46 292
51 614 250 834 158 176 365 290 608 337 108 20 298 12 420 -20z m-113 -282
c16 -21 21 -41 21 -88 l0 -62 43 -16 42 -15 57 53 c31 30 65 54 76 54 21 0 47
-18 140 -98 78 -68 81 -91 22 -167 l-41 -53 22 -38 c13 -22 23 -40 25 -42 1
-2 30 2 64 7 50 8 68 7 90 -4 33 -17 33 -17 55 -147 16 -90 16 -100 2 -122
-15 -22 -83 -46 -131 -46 -20 0 -33 -20 -39 -62 -5 -35 -4 -38 45 -69 27 -18
56 -39 64 -46 25 -26 15 -67 -39 -158 -67 -115 -82 -122 -173 -77 -68 34 -82
33 -116 -5 -16 -18 -16 -22 2 -82 25 -80 25 -93 -2 -118 -26 -22 -188 -83
-223 -83 -29 0 -56 33 -85 105 -22 54 -23 55 -61 55 -39 0 -40 0 -74 -75 -41
-92 -57 -98 -154 -65 -126 45 -150 57 -157 86 -6 22 8 86 33 150 2 6 -12 23
-31 38 l-35 27 -60 -31 c-103 -51 -115 -46 -187 81 -69 122 -68 133 20 189
l64 40 -9 38 c-5 20 -9 40 -9 44 0 3 -30 13 -67 22 -37 8 -75 24 -87 35 -20
20 -20 22 -3 126 9 59 22 115 28 126 16 30 47 37 118 28 35 -5 65 -8 66 -7 1
2 11 20 24 42 l22 38 -35 43 c-20 23 -41 54 -47 69 -16 35 2 60 106 144 93 76
108 76 176 2 l46 -50 46 16 47 16 0 69 c0 103 9 109 159 109 117 0 120 -1 140
-26z m-1577 -1554 c22 -17 27 -31 33 -93 l6 -74 41 -12 41 -13 51 51 c36 35
60 51 78 51 43 0 208 -140 208 -177 0 -11 -20 -46 -43 -78 l-44 -58 21 -39 21
-39 72 6 c110 10 119 0 144 -157 18 -121 10 -134 -103 -157 -51 -11 -56 -15
-62 -43 -11 -54 -7 -62 42 -93 61 -39 82 -60 82 -85 0 -21 -79 -168 -108 -202
-22 -26 -65 -22 -134 13 l-61 31 -30 -31 -30 -30 21 -71 c17 -56 19 -76 10
-95 -12 -27 -11 -26 -127 -66 -135 -46 -149 -42 -191 64 l-23 58 -44 -3 c-45
-3 -45 -3 -69 -63 -37 -92 -63 -102 -164 -65 -30 11 -73 27 -96 36 -61 22 -70
49 -42 135 l22 70 -29 24 c-17 13 -34 25 -40 25 -5 0 -38 -14 -72 -32 -86 -46
-103 -38 -170 77 -34 58 -53 102 -53 122 0 29 7 37 65 75 l65 43 -6 40 c-3 22
-8 43 -10 47 -3 4 -30 12 -62 18 -110 23 -115 34 -91 179 23 135 32 143 137
139 l74 -3 21 36 21 36 -42 58 c-23 32 -42 69 -42 81 0 17 25 45 87 99 111 95
129 97 198 24 l47 -51 43 13 43 13 5 70 c4 60 8 73 31 93 25 21 37 23 130 23
88 0 107 -3 128 -20z m-3557 -2681 c44 -12 140 -99 133 -121 -3 -7 -23 -19
-45 -27 l-40 -14 -36 39 c-34 37 -38 39 -97 39 -58 0 -63 -2 -95 -37 -104
-113 -10 -287 135 -248 25 7 50 23 66 44 l27 34 44 -16 c23 -9 43 -19 43 -23
0 -16 -49 -76 -79 -96 -73 -49 -179 -55 -259 -14 -179 91 -156 384 34 441 42
12 123 12 169 -1z m536 -209 c44 -118 82 -223 85 -233 5 -16 0 -18 -48 -15
-53 3 -53 3 -68 46 l-14 42 -97 0 -97 0 -14 -42 c-14 -43 -15 -43 -66 -46 -29
-2 -52 -1 -52 2 0 5 130 364 159 439 10 27 13 28 72 25 l61 -3 79 -215z m364
209 c65 -16 100 -58 100 -119 0 -37 -6 -54 -23 -73 l-24 -25 22 -7 c52 -17 77
-118 43 -176 -28 -48 -67 -59 -202 -59 l-121 0 0 235 0 235 81 0 c44 0 100 -5
124 -11z m315 -224 l0 -235 -50 0 -50 0 0 228 c0 126 3 232 7 235 3 4 26 7 50
7 l43 0 0 -235z m330 78 c52 -84 98 -153 103 -153 4 0 7 70 7 156 l0 155 48
-3 47 -3 3 -233 2 -233 -62 3 -62 3 -95 155 -96 155 -3 -157 -3 -158 -49 0
-50 0 0 235 0 236 58 -3 57 -3 95 -152z m598 110 l3 -43 -85 0 -86 0 0 -50 0
-49 73 -3 72 -3 3 -42 3 -43 -75 0 -76 0 0 -50 0 -49 83 -3 82 -3 3 -42 3 -43
-140 0 -141 0 0 228 c0 126 3 232 7 236 4 3 66 5 137 4 l131 -3 3 -42z m370 0
l3 -43 -55 0 -56 0 0 -190 0 -190 -50 0 -50 0 0 190 0 190 -55 0 -55 0 0 45 0
46 158 -3 157 -3 3 -42z m342 -188 l0 -235 -50 0 -50 0 0 235 0 235 50 0 50 0
0 -235z m608 188 l3 -43 -90 0 -91 0 0 -50 0 -49 78 -3 77 -3 3 -42 3 -43 -80
0 -81 0 0 -50 0 -49 88 -3 87 -3 3 -42 3 -43 -140 0 -141 0 0 235 0 236 138
-3 137 -3 3 -42z m580 0 l3 -43 -55 0 -56 0 0 -190 0 -190 -50 0 -50 0 -2 163
c-1 89 -2 173 -3 187 -1 23 -5 25 -58 28 l-57 3 0 38 c0 21 3 41 7 45 4 3 77
5 162 4 l156 -3 3 -42z m609 -178 c45 -121 82 -226 82 -233 1 -9 -13 -12 -51
-10 -51 3 -52 3 -66 46 l-14 42 -98 0 -97 0 -13 -45 -13 -45 -53 0 c-30 0 -54
2 -54 4 0 2 36 103 80 223 45 120 83 224 85 231 3 9 23 12 67 10 l63 -3 82
-220z m601 178 l3 -43 -85 0 -86 0 0 -50 0 -49 73 -3 72 -3 3 -42 3 -43 -75 0
-76 0 0 -50 0 -49 83 -3 82 -3 3 -42 3 -43 -140 0 -141 0 0 228 c0 126 3 232
7 236 4 3 66 5 137 4 l131 -3 3 -42z m226 -29 c55 -72 60 -76 73 -58 8 10 34
45 58 77 l45 57 55 0 c30 0 55 -4 55 -9 0 -5 -36 -55 -80 -111 -44 -56 -80
-105 -80 -109 0 -4 38 -59 85 -121 47 -62 85 -115 85 -117 0 -2 -29 -3 -63 -3
l-64 0 -53 75 c-29 41 -56 75 -59 75 -3 0 -28 -34 -56 -75 l-50 -74 -68 -1
-68 0 91 120 91 120 -86 109 c-47 60 -85 112 -85 115 0 3 26 6 58 6 l58 0 58
-76z m643 50 c50 -38 67 -70 67 -129 0 -39 -5 -62 -20 -82 -39 -52 -68 -66
-148 -71 l-76 -5 0 -78 0 -79 -50 0 -50 0 0 236 0 236 125 -4 c105 -3 129 -7
152 -24z m421 -21 l3 -43 -85 0 -86 0 0 -50 0 -49 73 -3 72 -3 3 -42 3 -43
-75 0 -76 0 0 -50 0 -49 83 -3 82 -3 3 -42 3 -43 -140 0 -141 0 0 228 c0 126
3 232 7 236 4 3 66 5 137 4 l131 -3 3 -42z m316 36 c115 -32 142 -185 42 -236
l-36 -18 65 -97 c36 -54 65 -100 65 -103 0 -3 -26 -5 -58 -5 l-57 0 -59 100
c-31 55 -62 100 -67 100 -5 0 -9 -45 -9 -100 l0 -100 -55 0 -55 0 0 228 c0
126 3 232 7 235 10 11 175 8 217 -4z m484 -36 l3 -43 -55 0 -56 0 0 -190 0
-190 -50 0 -50 0 -2 188 -3 187 -57 3 -58 3 0 38 c0 21 3 41 7 45 4 3 77 5
162 4 l156 -3 3 -42z m170 -190 l2 -233 -52 0 -53 0 1 228 c0 125 1 231 2 235
1 4 23 7 50 5 l47 -3 3 -232z m355 223 c39 -16 87 -70 87 -96 0 -15 -10 -20
-47 -26 -34 -5 -48 -3 -51 6 -22 66 -142 66 -142 0 0 -25 29 -43 109 -70 78
-26 108 -45 127 -81 31 -62 5 -142 -57 -174 -43 -23 -125 -30 -179 -15 -78 21
-154 119 -102 134 68 19 82 18 91 -6 13 -35 37 -50 80 -52 45 -1 71 17 71 49
0 30 -25 49 -90 70 -81 26 -135 60 -150 95 -26 62 7 136 75 166 39 17 137 18
178 0z m455 -33 l3 -43 -85 0 -86 0 0 -50 0 -49 73 -3 72 -3 3 -42 3 -43 -75
0 -76 0 0 -50 0 -49 83 -3 82 -3 3 -42 3 -43 -140 0 -141 0 0 228 c0 126 3
232 7 236 4 3 66 5 137 4 l131 -3 3 -42z m338 28 c44 -20 84 -63 84 -92 0 -14
-11 -19 -47 -25 -32 -5 -48 -3 -51 5 -20 61 -133 68 -140 7 -4 -33 15 -50 78
-67 141 -38 201 -120 152 -209 -30 -55 -74 -75 -162 -75 -94 0 -149 27 -180
89 l-20 41 37 12 c58 18 71 15 85 -14 17 -35 55 -55 92 -48 39 7 56 23 56 51
0 28 -26 47 -101 73 -86 29 -117 49 -135 83 -32 63 0 142 71 174 44 19 133 17
181 -5z m-5604 -368 c34 -31 11 -93 -35 -93 -27 0 -57 28 -57 53 0 48 56 73
92 40z m579 7 c13 -7 19 -21 19 -45 0 -35 -20 -55 -54 -55 -20 0 -56 35 -56
55 0 20 36 55 56 55 8 0 24 -5 35 -10z m561 -7 c34 -31 11 -93 -35 -93 -27 0
-57 28 -57 53 0 48 56 73 92 40z m3639 -634 c8 -15 6 -19 -9 -19 -10 0 -23 5
-29 11 -13 13 -43 5 -43 -11 0 -6 20 -19 45 -30 36 -15 45 -24 45 -43 0 -33
-22 -49 -67 -49 -24 0 -41 6 -50 18 -18 24 0 31 32 14 26 -14 59 -7 53 12 -4
12 -15 19 -61 37 -23 9 -28 16 -25 38 5 49 86 65 109 22z m-7131 12 c0 -5 -10
-11 -22 -13 -20 -3 -23 -10 -26 -54 -3 -48 -1 -52 23 -58 45 -11 26 -26 -34
-26 -63 0 -90 15 -46 26 23 6 25 11 25 60 0 51 -1 54 -25 54 -14 0 -25 5 -25
10 0 6 28 10 65 10 36 0 65 -4 65 -9z m87 -43 l28 -52 3 52 c2 37 7 52 18 52
11 0 14 -17 14 -80 0 -70 -2 -80 -17 -80 -11 0 -30 21 -48 53 l-30 52 -3 -52
c-2 -38 -7 -53 -18 -53 -11 0 -14 17 -14 80 0 72 2 80 19 80 13 0 29 -17 48
-52z m159 0 l29 -53 3 53 c2 37 7 52 18 52 11 0 14 -17 14 -80 0 -70 -2 -80
-17 -80 -11 0 -30 21 -48 53 l-30 52 -3 -52 c-2 -38 -7 -53 -18 -53 -11 0 -14
17 -14 80 0 71 2 80 18 80 12 0 29 -19 48 -52z m231 30 c52 -49 15 -138 -57
-138 -84 0 -117 96 -51 147 26 20 82 16 108 -9z m89 -25 c9 -27 20 -51 24 -56
3 -4 14 18 24 48 12 40 22 55 35 55 17 0 16 -7 -12 -80 -39 -102 -54 -104 -86
-12 -13 37 -26 73 -29 80 -2 6 3 12 11 12 9 0 22 -19 33 -47z m225 -33 c34
-88 33 -80 14 -80 -9 0 -18 7 -21 15 -4 9 -19 15 -40 15 -24 0 -34 -5 -34 -15
0 -8 -9 -15 -20 -15 -22 0 -25 -13 31 138 16 41 40 21 70 -58z m169 71 c0 -5
-10 -11 -22 -13 -21 -3 -23 -9 -26 -70 -2 -50 -7 -68 -17 -68 -10 0 -15 18
-17 68 -3 61 -5 67 -25 70 -49 7 -20 22 42 22 36 0 65 -4 65 -9z m140 0 c0 -5
-10 -11 -22 -13 -20 -3 -23 -10 -26 -55 -3 -47 -1 -52 19 -55 12 -2 24 -9 27
-15 3 -10 -13 -13 -57 -13 -60 0 -84 16 -41 27 17 5 20 14 20 59 0 47 -2 54
-20 54 -11 0 -20 5 -20 10 0 6 27 10 60 10 33 0 60 -4 60 -9z m161 -10 c18
-14 24 -29 24 -61 0 -53 -30 -80 -85 -80 -70 0 -106 86 -58 137 27 29 86 31
119 4z m118 -33 l31 -53 0 53 c0 39 4 52 15 52 12 0 15 -16 15 -80 0 -70 -2
-80 -17 -80 -11 0 -30 21 -48 53 l-30 52 -3 -52 c-2 -38 -7 -53 -18 -53 -11 0
-14 17 -14 80 0 72 2 80 19 80 13 0 30 -18 50 -52z m371 42 c0 -5 -18 -10 -40
-10 -33 0 -40 -3 -40 -19 0 -15 8 -21 32 -23 46 -4 49 -28 4 -28 -29 0 -36 -4
-36 -19 0 -16 8 -20 37 -23 20 -2 38 -9 41 -15 3 -10 -13 -13 -57 -13 l-61 0
0 80 0 80 60 0 c33 0 60 -4 60 -10z m61 -12 l12 -22 17 22 c10 12 25 22 34 22
14 0 13 -6 -6 -39 l-23 -39 23 -41 c19 -33 20 -41 8 -41 -8 0 -23 12 -34 27
l-20 28 -13 -28 c-7 -15 -20 -27 -31 -27 -18 0 -17 3 6 41 l24 42 -24 38 c-23
37 -23 39 -4 39 10 0 25 -10 31 -22z m213 6 c34 -34 14 -74 -40 -83 -33 -5
-39 -10 -42 -34 -2 -15 -9 -27 -18 -27 -11 0 -14 17 -14 80 l0 80 49 0 c32 0
55 -6 65 -16z m146 6 c0 -5 -18 -10 -40 -10 -33 0 -40 -3 -40 -20 0 -16 7 -20
35 -20 24 0 35 -5 35 -15 0 -10 -11 -15 -35 -15 -28 0 -35 -4 -35 -19 0 -16 8
-20 37 -23 20 -2 38 -9 41 -16 3 -10 -10 -12 -54 -10 l-59 3 -3 78 -3 77 61 0
c33 0 60 -4 60 -10z m134 -6 c20 -20 20 -43 1 -72 -12 -16 -13 -27 -5 -41 13
-25 13 -31 -2 -31 -7 0 -21 14 -31 31 -20 36 -41 34 -45 -4 -2 -15 -10 -27
-18 -27 -11 0 -14 17 -14 80 l0 80 49 0 c32 0 55 -6 65 -16z m156 7 c0 -5 -10
-11 -22 -13 -21 -3 -23 -9 -26 -70 -2 -50 -7 -68 -17 -68 -10 0 -15 18 -17 68
-3 61 -5 67 -25 70 -49 7 -20 22 42 22 36 0 65 -4 65 -9z m140 0 c0 -5 -10
-11 -22 -13 -20 -3 -23 -10 -26 -55 -3 -47 -1 -52 19 -55 12 -2 24 -9 27 -15
3 -10 -13 -13 -57 -13 -60 0 -84 16 -41 27 17 5 20 14 20 59 0 47 -2 54 -20
54 -11 0 -20 5 -20 10 0 6 27 10 60 10 33 0 60 -4 60 -9z m127 -6 c8 -24 -4
-30 -31 -16 -24 13 -46 8 -46 -10 0 -6 18 -18 40 -26 72 -29 63 -95 -13 -95
-42 0 -57 8 -57 28 0 16 26 19 35 4 8 -13 42 -13 50 0 10 16 -12 37 -45 43
-34 7 -51 47 -30 72 17 20 89 20 97 0z m143 6 c0 -6 -17 -11 -37 -13 -26 -2
-39 -8 -41 -20 -2 -13 5 -17 35 -20 49 -4 49 -22 1 -26 -29 -2 -38 -8 -38 -22
0 -14 9 -20 37 -22 62 -5 53 -28 -11 -28 l-56 0 0 80 0 80 55 0 c30 0 55 -4
55 -9z m210 -1 c26 -14 41 -64 29 -99 -12 -33 -45 -51 -94 -51 l-35 0 0 80 0
80 41 0 c22 0 49 -4 59 -10z m170 0 c0 -5 -18 -10 -40 -10 -33 0 -40 -3 -40
-19 0 -15 8 -21 32 -23 46 -4 49 -28 4 -28 -29 0 -36 -4 -36 -19 0 -16 8 -20
37 -23 20 -2 38 -9 41 -15 3 -10 -13 -13 -57 -13 l-61 0 0 80 0 80 60 0 c33 0
60 -4 60 -10z m114 4 c19 -7 21 -34 3 -34 -7 0 -18 5 -24 11 -15 15 -43 4 -43
-15 0 -8 13 -17 29 -21 16 -3 37 -15 47 -26 14 -16 15 -24 6 -44 -16 -34 -86
-38 -110 -7 -17 22 2 29 34 12 19 -11 26 -11 39 0 20 16 8 30 -37 44 -26 9
-34 17 -36 40 -2 16 2 32 10 37 15 10 60 12 82 3z m256 -4 c0 -5 -11 -10 -25
-10 -24 0 -25 -2 -25 -70 0 -63 -2 -70 -20 -70 -18 0 -20 7 -20 70 0 68 -1 70
-25 70 -14 0 -25 5 -25 10 0 6 30 10 70 10 40 0 70 -4 70 -10z m130 0 c0 -5
-18 -10 -40 -10 -33 0 -40 -3 -40 -19 0 -15 8 -21 32 -23 46 -4 49 -28 4 -28
-29 0 -36 -4 -36 -19 0 -16 8 -20 37 -23 20 -2 38 -9 41 -15 3 -10 -13 -13
-57 -13 l-61 0 0 80 0 80 60 0 c33 0 60 -4 60 -10z m149 -4 c16 -19 -2 -30
-27 -17 -28 15 -66 -8 -70 -42 -5 -42 15 -60 60 -54 39 5 61 -9 37 -24 -26
-16 -82 -10 -106 13 -30 28 -31 83 -1 115 25 27 88 32 107 9z m61 -16 c0 -28
3 -30 35 -30 32 0 35 2 35 30 0 23 4 30 20 30 18 0 20 -7 20 -80 0 -73 -2 -80
-20 -80 -16 0 -20 7 -20 35 0 33 -2 35 -36 35 -31 0 -35 -3 -34 -22 3 -39 1
-48 -15 -48 -12 0 -15 16 -15 80 0 64 3 80 15 80 10 0 15 -10 15 -30z m200
-22 l30 -53 0 53 c0 43 3 52 18 52 15 0 17 -10 17 -80 0 -69 -2 -80 -17 -80
-10 0 -31 20 -48 48 l-30 47 0 -47 c0 -41 -3 -48 -20 -48 -18 0 -20 7 -20 80
0 73 2 80 20 80 13 0 29 -17 50 -52z m231 33 c18 -14 24 -29 24 -61 0 -52 -30
-80 -83 -80 -73 0 -110 84 -60 137 27 29 86 31 119 4z m79 -45 l0 -65 37 -3
c62 -5 53 -28 -11 -28 l-56 0 0 80 c0 64 3 80 15 80 12 0 15 -14 15 -64z m241
45 c18 -14 24 -29 24 -61 0 -52 -30 -80 -83 -80 -73 0 -110 84 -60 137 27 29
86 31 119 4z m179 9 c23 -14 -2 -35 -26 -22 -45 23 -89 -31 -64 -78 9 -16 19
-20 42 -18 35 3 52 28 19 28 -12 0 -21 6 -21 15 0 11 11 15 40 15 43 0 50 -12
29 -53 -16 -30 -28 -37 -68 -37 -72 0 -109 84 -59 137 23 24 79 31 108 13z
m170 0 c0 -5 -9 -10 -20 -10 -18 0 -20 -7 -20 -54 0 -45 3 -54 20 -59 43 -11
19 -27 -40 -27 -59 0 -83 16 -40 27 17 5 20 14 20 59 0 47 -2 54 -20 54 -11 0
-20 5 -20 10 0 6 27 10 60 10 33 0 60 -4 60 -10z m140 0 c0 -5 -18 -10 -40
-10 -33 0 -40 -3 -40 -19 0 -15 8 -21 32 -23 46 -4 49 -28 4 -28 -29 0 -36 -4
-36 -19 0 -16 8 -20 37 -23 20 -2 38 -9 41 -15 3 -10 -13 -13 -57 -13 l-61 0
0 80 0 80 60 0 c33 0 60 -4 60 -10z m114 4 c19 -7 21 -34 3 -34 -7 0 -18 5
-24 11 -15 15 -43 4 -43 -15 0 -8 13 -17 29 -21 16 -3 37 -15 47 -26 14 -16
15 -24 6 -44 -16 -34 -85 -38 -110 -7 -11 14 -10 18 3 20 9 2 22 -2 30 -8 8
-7 22 -9 31 -6 26 10 11 38 -26 50 -35 11 -49 38 -36 72 6 14 60 19 90 8z
m233 -59 c36 -92 36 -95 18 -95 -8 0 -18 7 -21 15 -4 9 -19 15 -40 15 -24 0
-34 -5 -34 -15 0 -8 -9 -15 -20 -15 -22 0 -25 -13 31 138 15 39 41 22 66 -43z
m83 7 c0 -74 21 -100 54 -66 11 10 16 34 16 70 0 41 4 54 15 54 12 0 15 -14
15 -63 0 -75 -19 -101 -72 -99 -48 1 -68 31 -68 103 0 52 2 59 20 59 18 0 20
-7 20 -58z m250 48 c0 -5 -11 -10 -25 -10 -24 0 -25 -2 -25 -70 0 -55 -3 -70
-15 -70 -11 0 -15 16 -17 68 -3 61 -5 67 -25 70 -49 7 -20 22 42 22 37 0 65
-4 65 -10z m157 -12 c52 -49 15 -138 -58 -138 -54 0 -84 28 -84 80 0 32 6 47
24 61 32 26 89 25 118 -3z m110 -35 l26 -58 15 35 c8 19 18 45 23 58 5 13 17
22 29 22 18 0 20 -6 20 -81 0 -71 -2 -80 -17 -77 -12 2 -20 15 -23 37 l-5 34
-13 -36 c-17 -48 -42 -48 -64 1 l-16 37 -1 -37 c-1 -27 -6 -38 -16 -38 -12 0
-15 16 -15 80 0 101 18 108 57 23z m282 31 c45 -58 11 -134 -60 -134 -50 0
-89 35 -89 80 0 73 104 111 149 54z m151 6 c7 -14 8 -26 0 -39 -7 -13 -7 -22
0 -26 14 -9 13 -48 -2 -63 -7 -7 -34 -12 -60 -12 l-48 0 0 80 0 80 50 0 c39 0
52 -4 60 -20z m150 10 c0 -5 -9 -10 -20 -10 -18 0 -20 -7 -20 -54 0 -45 3 -54
20 -59 43 -11 19 -27 -40 -27 -59 0 -83 16 -40 27 17 5 20 14 20 59 0 47 -2
54 -20 54 -11 0 -20 5 -20 10 0 6 27 10 60 10 33 0 60 -4 60 -10z m60 -54 l0
-65 37 -3 c62 -5 53 -28 -11 -28 -31 0 -57 3 -57 8 -4 24 -5 138 -2 145 2 4
11 7 19 7 11 0 14 -15 14 -64z m210 54 c0 -5 -18 -10 -40 -10 -33 0 -40 -3
-40 -20 0 -16 7 -20 35 -20 24 0 35 -5 35 -15 0 -10 -11 -15 -35 -15 -28 0
-35 -4 -35 -19 0 -16 8 -20 37 -23 62 -5 53 -28 -11 -28 l-56 0 0 80 0 80 55
0 c30 0 55 -4 55 -10z m-5470 -142 c0 -25 -12 -58 -21 -58 -5 0 -9 11 -9 25 0
18 -5 25 -20 25 -11 0 -20 5 -20 10 0 6 16 10 35 10 21 0 35 -5 35 -12z m6518
-1130 l3 -108 -4541 0 -4540 0 0 103 c0 57 3 107 7 110 3 4 2045 6 4537 5
l4531 -3 3 -107z"/>
<path d="M10937 9384 c-2 -36 -11 -72 -19 -80 -7 -8 -40 -21 -71 -29 -32 -8
-75 -24 -97 -35 -58 -30 -79 -26 -132 27 -43 42 -50 46 -63 32 -14 -14 -12
-20 18 -60 52 -68 52 -73 5 -156 -86 -148 -74 -138 -159 -138 -67 0 -74 -2
-77 -21 -3 -18 5 -22 54 -33 72 -16 104 -46 104 -97 0 -20 7 -63 15 -96 9 -33
13 -68 10 -79 -4 -11 -31 -36 -61 -56 -58 -38 -59 -40 -44 -63 8 -13 16 -11
59 13 70 39 102 36 153 -14 24 -22 62 -54 86 -70 48 -34 52 -57 27 -129 -19
-55 -19 -67 4 -73 15 -3 23 7 41 52 13 31 29 62 36 70 15 17 215 22 251 7 14
-5 32 -33 49 -71 22 -49 31 -61 46 -57 22 5 22 8 3 62 -26 73 -20 105 23 137
20 15 58 47 84 70 56 51 78 53 149 17 40 -20 54 -23 65 -13 23 19 17 27 -40
64 -30 19 -57 43 -61 54 -3 11 1 46 10 79 8 33 15 76 15 95 0 54 31 84 101 98
52 10 60 14 57 33 -3 19 -8 21 -62 18 -91 -5 -103 1 -132 65 -13 31 -36 71
-49 89 -41 54 -41 73 5 134 36 48 39 56 25 69 -13 14 -20 10 -63 -32 -53 -52
-74 -57 -130 -28 -21 11 -63 27 -95 36 -67 19 -87 36 -87 73 0 61 -12 102 -30
102 -14 0 -18 -12 -23 -66z m139 -312 c122 -62 177 -178 149 -312 -11 -54 -62
-126 -112 -159 -165 -109 -383 -19 -423 175 -6 29 -8 70 -4 91 18 97 95 190
184 218 60 20 154 13 206 -13z"/>
<path d="M10889 8945 c-61 -33 -82 -111 -50 -179 35 -72 120 -98 188 -56 45
27 65 62 65 114 0 83 -53 136 -134 136 -23 -1 -55 -7 -69 -15z"/>
<path d="M9370 7830 c0 -76 -15 -98 -78 -116 -29 -9 -78 -27 -107 -40 -63 -29
-82 -24 -139 35 -30 31 -43 38 -53 30 -19 -16 -17 -21 22 -72 43 -56 43 -77 6
-136 -16 -25 -39 -67 -52 -93 -27 -57 -50 -68 -129 -61 -61 6 -62 5 -58 -18 2
-18 12 -25 43 -31 64 -13 95 -29 100 -52 2 -11 9 -48 15 -81 5 -33 14 -74 19
-90 12 -44 -2 -71 -59 -106 -51 -31 -54 -36 -44 -63 5 -13 15 -11 65 14 32 17
68 30 79 30 12 0 42 -19 68 -43 26 -23 64 -55 84 -70 20 -15 39 -35 43 -45 3
-11 -4 -48 -14 -83 -11 -35 -19 -64 -18 -65 1 -1 11 -4 23 -8 17 -5 23 1 39
46 30 84 38 88 164 88 60 0 117 -3 126 -6 10 -4 30 -36 46 -70 28 -65 34 -70
56 -56 10 6 8 22 -7 71 -21 70 -16 102 21 121 12 7 48 36 80 66 32 30 68 54
79 54 11 0 43 -12 71 -26 92 -46 110 -7 24 50 -47 31 -59 47 -57 76 0 6 30
159 37 196 5 22 30 35 103 54 35 9 42 15 42 35 0 26 6 26 -90 10 -50 -8 -79
10 -102 62 -12 27 -37 72 -56 101 -40 59 -38 71 20 143 31 38 31 40 12 54 -17
13 -22 11 -54 -24 -55 -62 -72 -66 -134 -38 -30 14 -79 32 -110 41 -65 19 -76
35 -76 110 0 53 -1 56 -25 56 -23 0 -25 -3 -25 -50z m165 -335 c51 -29 86 -71
116 -140 40 -89 13 -209 -63 -286 -106 -105 -282 -105 -388 1 -126 126 -98
336 55 426 83 48 198 48 280 -1z"/>
<path d="M9333 7384 c-51 -25 -76 -75 -70 -137 4 -42 10 -56 40 -83 46 -43 94
-52 144 -28 109 54 110 193 1 250 -35 18 -75 17 -115 -2z"/>
<path d="M6327 5133 c-15 -43 -27 -81 -27 -85 0 -5 27 -8 61 -8 43 0 60 4 57
13 -13 47 -53 157 -58 157 -3 0 -18 -35 -33 -77z"/>
<path d="M6760 5190 l0 -50 43 0 c49 0 67 13 67 50 0 37 -18 50 -67 50 l-43 0
0 -50z"/>
<path d="M6760 4999 l0 -61 54 4 c64 5 86 20 86 59 0 38 -33 59 -92 59 l-48 0
0 -61z"/>
<path d="M10460 5185 c-14 -35 -50 -136 -50 -142 0 -1 27 -3 61 -3 70 0 69 -4
25 113 l-24 62 -12 -30z"/>
<path d="M11910 5175 l0 -65 53 0 c58 0 84 14 87 45 7 66 -13 85 -86 85 l-54
0 0 -65z"/>
<path d="M12710 5190 l0 -50 43 0 c23 0 47 4 53 8 20 14 25 45 9 68 -12 19
-24 24 -60 24 l-45 0 0 -50z"/>
<path d="M7062 4294 c-31 -22 -30 -69 3 -90 23 -15 27 -15 50 0 33 21 34 68 3
90 -12 9 -25 16 -28 16 -3 0 -16 -7 -28 -16z"/>
<path d="M7405 4261 c-8 -26 -3 -34 19 -29 12 2 13 7 2 27 l-14 24 -7 -22z"/>
<path d="M7841 4291 c-12 -12 -21 -30 -21 -41 0 -26 37 -63 57 -56 8 3 18 6
22 6 18 0 31 50 19 75 -6 14 -15 25 -19 25 -4 0 -14 3 -22 6 -9 3 -25 -4 -36
-15z"/>
<path d="M8617 4304 c-4 -4 -7 -18 -7 -31 0 -21 4 -24 28 -21 21 2 27 8 27 28
0 18 -6 26 -20 28 -12 2 -24 0 -28 -4z"/>
<path d="M8897 4303 c-4 -3 -7 -17 -7 -30 0 -18 6 -23 24 -23 33 0 53 25 36
45 -13 16 -42 20 -53 8z"/>
<path d="M9687 4303 c-4 -3 -7 -28 -7 -55 0 -43 2 -48 23 -48 31 0 47 18 47
51 0 35 -44 71 -63 52z"/>
<path d="M10970 4290 c-11 -11 -20 -29 -20 -40 0 -21 33 -60 50 -60 6 0 22 11
35 24 27 27 24 58 -8 81 -28 19 -33 19 -57 -5z"/>
<path d="M11290 4290 c-11 -11 -20 -29 -20 -40 0 -20 32 -60 48 -60 23 0 52
34 52 60 0 18 -8 34 -22 44 -29 20 -34 20 -58 -4z"/>
<path d="M12165 4261 c-8 -26 -3 -34 19 -29 12 2 13 7 2 27 l-14 24 -7 -22z"/>
<path d="M12622 4294 c-44 -30 -12 -114 37 -97 42 15 53 61 21 93 -24 24 -29
24 -58 4z"/>
<path d="M13003 4284 c-15 -15 -22 -31 -19 -40 3 -9 6 -19 6 -23 0 -16 51 -31
70 -21 41 22 34 91 -11 103 -14 4 -29 -2 -46 -19z"/>
<path d="M13177 4296 c-7 -18 1 -26 25 -26 13 0 18 6 16 17 -4 22 -34 29 -41
9z"/>
<path d="M13180 4221 c0 -16 6 -21 26 -21 33 0 30 33 -4 38 -17 3 -22 -2 -22
-17z"/>
</g>
</svg>
